<svg xmlns="http://www.w3.org/2000/svg" viewBox="0 0 310.83 271.9"><defs><style>.cls-1{fill:#f77d57;}.cls-2{fill:#161616;}</style></defs><g id="Layer_2" data-name="Layer 2"><g id="_08" data-name="08"><path class="cls-1" d="M310.54,216.56a14.54,14.54,0,0,1-11,11.29l-86.31,23.07a119.19,119.19,0,0,0,34.27-104.69l59.18,57.35.22.24A14.45,14.45,0,0,1,310.54,216.56Z"/><path class="cls-2" d="M225,183.85A112.74,112.74,0,0,1,50.51,251.61,78.72,78.72,0,0,0,82,97.38a81.45,81.45,0,0,0-10.84-1.66c-.43,0-.86,0-1.29-.09A31.26,31.26,0,0,1,42.62,72.87,26.84,26.84,0,0,1,42,70.15l0-.3-.05-.29-.13-.67L39,50.32,36.19,32.21,36,30.59l-.13-1c-.08-.86-.13-1.74-.13-2.61A27,27,0,0,1,77.47,4.41l.09.07,94.75,57.69h0A112.71,112.71,0,0,1,225,183.85Z"/><path class="cls-2" d="M.29,205A12,12,0,0,0,9.4,219.35l1,.18,46.78,6.67,1.39.15a52.53,52.53,0,1,0-44.39-66.46l-.11.36L.56,204Z"/></g></g></svg>