<svg xmlns="http://www.w3.org/2000/svg" width="1692.605" height="1050" viewBox="0 0 1692.605 1050">
  <g id="Grupo_1931" data-name="Grupo 1931" transform="translate(-10167.395 -3719)">
    <rect id="Ret창ngulo_152" data-name="Ret창ngulo 152" width="1680" height="1050" transform="translate(10180 3719)" fill="#fff"/>
    <g id="Grupo_1878" data-name="Grupo 1878" transform="translate(11674.521 4264.338)">
      <circle id="Elipse_757" data-name="Elipse 757" cx="62.982" cy="62.982" r="62.982" transform="matrix(0.227, -0.974, 0.974, 0.227, 0, 122.681)" fill="none" stroke="#001f4c" stroke-miterlimit="10" stroke-width="2.708"/>
      <path id="Caminho_10040" data-name="Caminho 10040" d="M604.8,253.556v-59.63l45.6,28.061Z" transform="translate(-545.892 -146.712)" fill="#ff7e54"/>
    </g>
    <g id="Grupo_1879" data-name="Grupo 1879" transform="translate(11449.42 4292.103)">
      <path id="Caminho_10041" data-name="Caminho 10041" d="M545.656,280.887s-45.833-13.1-45.833-13.8-32.038-82.547-32.038-82.547L551.97,211.9,568.1,256.334Z" transform="translate(-467.785 -184.543)" fill="none" stroke="#101010" stroke-linecap="round" stroke-linejoin="round" stroke-width="2.708"/>
      <path id="Caminho_10042" data-name="Caminho 10042" d="M505.352,243.73l27.36,21.981s4.676.234.935-4.911-5.611-9.587,0-6.546,33.674,28.06,35.311,21.046c0,0,1.949-7.406-13.8-18.865l-20.187-18.473s-2.34-6.156,3.741-4.911c0,0,4.287-.7,1.246-4.442L527.8,219.177Z" transform="translate(-427.481 -147.386)" fill="#ff7e54"/>
      <line id="Linha_33" data-name="Linha 33" x2="62.203" y2="59.24" transform="translate(0.235 0.624)" fill="none" stroke="#001f4c" stroke-linecap="round" stroke-linejoin="round" stroke-width="2.707"/>
      <path id="Caminho_10043" data-name="Caminho 10043" d="M512.759,220.173a8.028,8.028,0,1,1-8.028-8.028A8.028,8.028,0,0,1,512.759,220.173Z" transform="translate(-436.76 -154.93)" fill="none" stroke="#001f4c" stroke-linecap="round" stroke-linejoin="round" stroke-width="2.707"/>
    </g>
    <g id="Grupo_1882" data-name="Grupo 1882" transform="translate(11226.648 4344.474)">
      <g id="Grupo_1880" data-name="Grupo 1880">
        <path id="Caminho_10044" data-name="Caminho 10044" d="M382.044,265.307h0a4.008,4.008,0,0,1-4.007-4.007V213.813a4.007,4.007,0,0,1,4.007-4h0a4.007,4.007,0,0,1,4.007,4V261.3A4.008,4.008,0,0,1,382.044,265.307Z" transform="translate(-341.3 -209.808)" fill="#101010"/>
        <path id="Caminho_10045" data-name="Caminho 10045" d="M376.135,257.4h0a4.007,4.007,0,0,1-4-4.007V216.327a4,4,0,0,1,4-4h0a4.005,4.005,0,0,1,4.007,4v37.065A4.007,4.007,0,0,1,376.135,257.4Z" transform="translate(-347.637 -207.111)" fill="#101010"/>
        <path id="Caminho_10046" data-name="Caminho 10046" d="M370.227,249.49h0a4.007,4.007,0,0,1-4-4.007V218.841a4,4,0,0,1,4-4h0a4.005,4.005,0,0,1,4.007,4v26.642A4.007,4.007,0,0,1,370.227,249.49Z" transform="translate(-353.976 -204.414)" fill="#101010"/>
        <path id="Caminho_10047" data-name="Caminho 10047" d="M364.319,241.582h0a4.007,4.007,0,0,1-4-4.007v-16.22a4,4,0,0,1,4-4h0a4.005,4.005,0,0,1,4.007,4v16.22A4.007,4.007,0,0,1,364.319,241.582Z" transform="translate(-360.314 -201.717)" fill="#101010"/>
      </g>
      <g id="Grupo_1881" data-name="Grupo 1881" transform="translate(36.671)">
        <path id="Caminho_10048" data-name="Caminho 10048" d="M382.012,209.808h0a4.007,4.007,0,0,1,4.007,4V261.3a4.008,4.008,0,0,1-4.007,4.007h0a4.008,4.008,0,0,1-4.007-4.007V213.813A4.006,4.006,0,0,1,382.012,209.808Z" transform="translate(-378.005 -209.808)" fill="#101010"/>
        <path id="Caminho_10049" data-name="Caminho 10049" d="M387.92,212.322h0a4.007,4.007,0,0,1,4.007,4v37.065a4.008,4.008,0,0,1-4.007,4.007h0a4.008,4.008,0,0,1-4.007-4.007V216.327A4.007,4.007,0,0,1,387.92,212.322Z" transform="translate(-371.667 -207.111)" fill="#101010"/>
        <path id="Caminho_10050" data-name="Caminho 10050" d="M393.828,214.836h0a4.007,4.007,0,0,1,4.007,4v26.642a4.008,4.008,0,0,1-4.007,4.007h0a4.008,4.008,0,0,1-4.007-4.007V218.841A4.007,4.007,0,0,1,393.828,214.836Z" transform="translate(-365.328 -204.414)" fill="#101010"/>
        <path id="Caminho_10051" data-name="Caminho 10051" d="M399.736,217.35h0a4,4,0,0,1,4,4v16.22a4.007,4.007,0,0,1-4,4.007h0a4.007,4.007,0,0,1-4.007-4.007v-16.22A4.005,4.005,0,0,1,399.736,217.35Z" transform="translate(-358.99 -201.717)" fill="#101010"/>
      </g>
    </g>
    <path id="Caminho_10052" data-name="Caminho 10052" d="M664.552,293.266H628.541a8.417,8.417,0,0,1-8.418-8.418h0a8.417,8.417,0,0,1,8.418-8.418h36.012a8.417,8.417,0,0,1,8.418,8.418h0A8.417,8.417,0,0,1,664.552,293.266Z" transform="translate(11145.071 4206.142)" fill="#101010"/>
    <path id="Caminho_10053" data-name="Caminho 10053" d="M448.223,265.308H412.211a8.417,8.417,0,0,1-8.418-8.418h0a8.417,8.417,0,0,1,8.418-8.418h36.012a8.417,8.417,0,0,1,8.418,8.418h0A8.417,8.417,0,0,1,448.223,265.308Z" transform="translate(10912.981 4176.146)" fill="#101010"/>
    <path id="Caminho_10054" data-name="Caminho 10054" d="M659.613,163.824H574.027a8.653,8.653,0,0,1-8.652-8.652h0a8.653,8.653,0,0,1,8.652-8.652h85.586a8.653,8.653,0,0,1,8.652,8.652h0A8.653,8.653,0,0,1,659.613,163.824Z" transform="translate(11086.335 4066.767)" fill="#101010"/>
    <path id="Caminho_10055" data-name="Caminho 10055" d="M442.789,316.671s-36.976-151.53,102.89-151.532c36.223,0,70.8,14.475,94.437,42.487,20.913,24.785,28.35,57.366,45.443,84.844,20.384,32.772,49.411,62.851,86.9,72.025a117.864,117.864,0,0,0,27.214,3.18c41.668.272,84.191-19.758,106.128-55.183" transform="translate(10950.073 4086.743)" fill="none" stroke="#ff7e54" stroke-linecap="round" stroke-linejoin="round" stroke-width="2.707"/>
    <path id="Caminho_10056" data-name="Caminho 10056" d="M467.223,178.952a7.833,7.833,0,1,1-7.833-7.833A7.834,7.834,0,0,1,467.223,178.952Z" transform="translate(10964.224 4093.158)" fill="#101010"/>
    <circle id="Elipse_758" data-name="Elipse 758" cx="7.834" cy="7.834" r="7.834" transform="translate(11583.8 4284.809)" fill="#101010"/>
    <path id="Caminho_10057" data-name="Caminho 10057" d="M610.871,264.709a7.833,7.833,0,1,1-7.833-7.833A7.834,7.834,0,0,1,610.871,264.709Z" transform="translate(11118.337 4185.163)" fill="#101010"/>
    <g id="Grupo_1886" data-name="Grupo 1886" transform="translate(11301.348 4233.531)">
      <g id="Grupo_1884" data-name="Grupo 1884" transform="translate(0 37.449)">
        <line id="Linha_34" data-name="Linha 34" x1="115.308" y2="45.22" transform="translate(3.566)" fill="none" stroke="#101010" stroke-linecap="round" stroke-linejoin="round" stroke-width="0.902"/>
        <path id="Caminho_10058" data-name="Caminho 10058" d="M396.365,198.27A3.149,3.149,0,1,1,399.8,201.1,3.149,3.149,0,0,1,396.365,198.27Z" transform="translate(-396.351 -152.393)" fill="#101010" stroke="#101010" stroke-width="1"/>
      </g>
      <g id="Grupo_1885" data-name="Grupo 1885" transform="translate(118.874)">
        <line id="Linha_35" data-name="Linha 35" y1="33.985" x2="119.104" transform="translate(0 3.464)" fill="none" stroke="#101010" stroke-linecap="round" stroke-linejoin="round" stroke-width="0.902"/>
        <path id="Caminho_10059" data-name="Caminho 10059" d="M516.153,159.435A3.149,3.149,0,1,1,513,156.286,3.148,3.148,0,0,1,516.153,159.435Z" transform="translate(-393.451 -156.286)" fill="#101010" stroke="#101010" stroke-width="1"/>
      </g>
    </g>
    <path id="Caminho_10060" data-name="Caminho 10060" d="M278.757,391.817s113.3,63.858,218.7-.22c0,0,148.935-106.021,117.2-276.515" transform="translate(10778.836 4290.495)" fill="none" stroke="#ff7e54" stroke-linecap="round" stroke-linejoin="round" stroke-width="2.707"/>
    <rect id="Ret창ngulo_156" data-name="Ret창ngulo 156" width="76.701" height="76.701" transform="translate(11187.703 4193)" fill="none" stroke="#101010" stroke-linecap="round" stroke-linejoin="round" stroke-width="2.707"/>
    <path id="Caminho_10061" data-name="Caminho 10061" d="M363.466,388.709a7.833,7.833,0,1,1-7.833-7.835A7.834,7.834,0,0,1,363.466,388.709Z" transform="translate(10852.908 4318.194)" fill="#101010"/>
    <path id="Caminho_10073" data-name="Caminho 10073" d="M-174.185,492.385C55.556,322.2,250.655,323.57,339.072,331.013s175.829,32.994,251.8,78.829C616.5,425.3,640.771,443,667.12,457.189c24.846,13.377,52.524,23.059,79.919,29.836" transform="translate(10472.894 4007.906) rotate(16)" fill="none" stroke="#ff7e54" stroke-linecap="round" stroke-linejoin="round" stroke-width="2.707"/>
  </g>
</svg>
