<svg xmlns="http://www.w3.org/2000/svg" width="406" height="251" viewBox="0 0 406 251">
  <g id="Grupo_1847" data-name="Grupo 1847" transform="translate(-5265 -5508)">
    <g id="Grupo_1844" data-name="Grupo 1844" transform="translate(498)">
      <rect id="_1" data-name="1" width="406" height="251" transform="translate(4767 5508)" fill="#fff"/>
    </g>
    <g id="mackenzie_w" transform="translate(5317.301 5590)">
      <g id="Grupo_1845" data-name="Grupo 1845" transform="translate(-0.301)">
        <path id="Caminho_9992" data-name="Caminho 9992" d="M33.8,52.678a1.285,1.285,0,0,0,.756.453h1.965a.831.831,0,0,0,.756-.453h0l7.709-19.65h0c.453-1.058.907-.907.907.151h0V45.272h0c0,1.209-.6,2.116-1.36,2.116s-1.36.907-1.36,2.116h0v4.988h13V49.5h0c0-1.209-.6-2.116-1.36-2.116a1.6,1.6,0,0,1-1.36-1.36h0v-20.1c0-1.209.6-2.116,1.36-2.116s1.36-.907,1.36-2.116h0V16.1H44.228L35.31,37.563,26.392,16.1H14.3v5.593h0c0,1.209.6,2.116,1.36,2.116s1.36.907,1.36,2.116h0V45.272h0c0,1.209-.6,2.116-1.36,2.116S14.3,48.3,14.3,49.5h0v4.988H27.45V49.5h0c0-1.209-.6-2.116-1.36-2.116s-1.36-.907-1.36-2.116h0V33.18h0c0-1.209.453-1.209.907-.151h0L33.8,52.678Z" transform="translate(7.769 8.235)" fill="#df0003"/>
        <path id="Caminho_9993" data-name="Caminho 9993" d="M42.929,0A43.229,43.229,0,1,1-.3,43.229,43.415,43.415,0,0,1,42.929,0Zm0,8.616A34.614,34.614,0,1,0,77.392,43.229,34.738,34.738,0,0,0,42.929,8.616Z" transform="translate(0.301)" fill="#df0003"/>
      </g>
      <g id="Grupo_1846" data-name="Grupo 1846" transform="translate(108.226 29.021)">
        <path id="Caminho_9994" data-name="Caminho 9994" d="M71.5,47.616V19.2h8.464L85.1,38.547,90.243,19.2h8.616V47.616h-5.29V25.246l-5.593,22.37H82.383L76.79,25.246v22.37Z" transform="translate(-71.5 -19.2)" fill="#df0003"/>
        <path id="Caminho_9995" data-name="Caminho 9995" d="M97.79,30.751,92.8,29.844a7.748,7.748,0,0,1,2.872-4.383,10.846,10.846,0,0,1,6.046-1.36,12.631,12.631,0,0,1,5.441.907,6.345,6.345,0,0,1,2.57,2.267,11.308,11.308,0,0,1,.756,4.837v6.348a13.093,13.093,0,0,0,.3,3.93,10.127,10.127,0,0,0,1.058,2.721h-5.441c-.151-.3-.3-.907-.6-1.663a1.564,1.564,0,0,0-.151-.6,7.451,7.451,0,0,1-3.023,1.965,8.845,8.845,0,0,1-3.325.756A7.345,7.345,0,0,1,94.314,43.9,5.814,5.814,0,0,1,92.5,39.517a5.107,5.107,0,0,1,.907-3.023,5.123,5.123,0,0,1,2.267-2.116,17.553,17.553,0,0,1,4.383-1.209,25.431,25.431,0,0,0,5.29-1.36v-.6a3.129,3.129,0,0,0-.756-2.267,4.778,4.778,0,0,0-2.872-.6,3.378,3.378,0,0,0-2.267.6c-.907.151-1.36.907-1.663,1.814Zm7.255,4.383c-.756.3-1.814.453-3.325.907a10.352,10.352,0,0,0-3.023.907,2.359,2.359,0,0,0-1.058,1.965,3.183,3.183,0,0,0,.756,1.965,2.984,2.984,0,0,0,2.116.907,4.976,4.976,0,0,0,2.872-.907,3.009,3.009,0,0,0,1.209-1.814,9.444,9.444,0,0,0,.3-2.721V35.134Z" transform="translate(-60.758 -16.694)" fill="#df0003"/>
        <path id="Caminho_9996" data-name="Caminho 9996" d="M126.2,30.6l-5.29,1.058a3.7,3.7,0,0,0-1.209-2.418,3.191,3.191,0,0,0-2.418-.907,4.444,4.444,0,0,0-3.325,1.36,7.578,7.578,0,0,0-1.209,4.686c0,2.418.453,4.232,1.209,5.139a4.08,4.08,0,0,0,3.325,1.512,3.814,3.814,0,0,0,2.57-.907,6.264,6.264,0,0,0,1.36-3.023l5.29.907a10.73,10.73,0,0,1-3.174,5.593,9.941,9.941,0,0,1-6.348,1.965,9.346,9.346,0,0,1-7.255-2.872A11.047,11.047,0,0,1,107,34.832c0-3.325.907-6.046,2.721-7.86a9.346,9.346,0,0,1,7.255-2.872,10.583,10.583,0,0,1,6.046,1.663A8.082,8.082,0,0,1,126.2,30.6Z" transform="translate(-53.342 -16.694)" fill="#df0003"/>
        <path id="Caminho_9997" data-name="Caminho 9997" d="M122.3,47.616V19.2h5.593V34.315l6.348-7.255h6.651l-7.1,7.406,7.558,13.15H135.45l-5.139-9.22-2.418,2.57v6.651Z" transform="translate(-45.516 -19.2)" fill="#df0003"/>
        <path id="Caminho_9998" data-name="Caminho 9998" d="M149.452,38.459l5.441.907a8.983,8.983,0,0,1-8.918,6.2c-3.628,0-6.2-1.209-7.86-3.476a11.987,11.987,0,0,1-2.116-7.1c0-3.476.907-6.046,2.721-8.011a8.806,8.806,0,0,1,6.8-2.872,9.454,9.454,0,0,1,7.255,3.023c1.663,1.965,2.57,5.139,2.418,9.22h-13.6a5.03,5.03,0,0,0,1.36,3.779,4.117,4.117,0,0,0,3.174,1.36,4.369,4.369,0,0,0,2.116-.6,7.212,7.212,0,0,0,1.209-2.418Zm.3-5.441a5.515,5.515,0,0,0-1.209-3.628,3.854,3.854,0,0,0-5.744.151,5.04,5.04,0,0,0-1.058,3.476Z" transform="translate(-38.508 -16.694)" fill="#df0003"/>
        <path id="Caminho_9999" data-name="Caminho 9999" d="M170.343,45.11H164.9V34.529a20.46,20.46,0,0,0-.3-4.232,3.858,3.858,0,0,0-1.058-1.512,3.781,3.781,0,0,0-1.965-.6,5.1,5.1,0,0,0-2.57.756,3.5,3.5,0,0,0-1.512,2.116,15.724,15.724,0,0,0-.453,4.686V45.11H151.6V24.553h4.988v3.023a8.451,8.451,0,0,1,6.8-3.476,11.791,11.791,0,0,1,3.325.6,5.526,5.526,0,0,1,2.267,1.663,3.972,3.972,0,0,1,1.058,2.267,12.458,12.458,0,0,1,.3,3.628V45.11Z" transform="translate(-30.528 -16.694)" fill="#df0003"/>
        <path id="Caminho_10000" data-name="Caminho 10000" d="M166.2,44.956V40.724l7.709-8.767c1.36-1.512,2.267-2.418,2.721-3.023h-9.674V24.4h16.929v3.93l-7.86,9.069L173.3,40.422a26.235,26.235,0,0,1,2.721-.151h8.313v4.686Z" transform="translate(-23.061 -16.54)" fill="#df0003"/>
        <path id="Caminho_10001" data-name="Caminho 10001" d="M180.7,24.188V19.2h5.441v4.988Zm0,23.428V27.06h5.441V47.616Z" transform="translate(-15.644 -19.2)" fill="#df0003"/>
        <path id="Caminho_10002" data-name="Caminho 10002" d="M200.4,38.459l5.441.907a8.983,8.983,0,0,1-8.918,6.2c-3.628,0-6.2-1.209-7.86-3.476a11.923,11.923,0,0,1-1.965-7.1c0-3.476.907-6.046,2.721-8.011a8.71,8.71,0,0,1,6.651-2.872,9.454,9.454,0,0,1,7.255,3.023c1.814,1.965,2.57,5.139,2.57,9.22h-13.6a5.03,5.03,0,0,0,1.36,3.779,4.028,4.028,0,0,0,3.023,1.36,5.007,5.007,0,0,0,2.267-.6,12.635,12.635,0,0,0,1.058-2.418Zm.3-5.441a5.515,5.515,0,0,0-1.209-3.628,3.854,3.854,0,0,0-5.744.151,5.04,5.04,0,0,0-1.058,3.476Z" transform="translate(-12.37 -16.694)" fill="#df0003"/>
      </g>
    </g>
  </g>
</svg>
