<svg xmlns="http://www.w3.org/2000/svg" xmlns:xlink="http://www.w3.org/1999/xlink" width="406" height="251" viewBox="0 0 406 251">
  <defs>
    <linearGradient id="linear-gradient" x1="0.034" y1="-0.326" x2="0.848" y2="1.117" gradientUnits="objectBoundingBox">
      <stop offset="0" stop-color="#4801ff"/>
      <stop offset="0.21" stop-color="#630ef8"/>
      <stop offset="0.555" stop-color="#8b22ed"/>
      <stop offset="0.831" stop-color="#a32ee6"/>
      <stop offset="1" stop-color="#ac32e4"/>
    </linearGradient>
  </defs>
  <g id="Grupo_1865" data-name="Grupo 1865" transform="translate(-10216 -5508)">
    <g id="Grupo_1855" data-name="Grupo 1855" transform="translate(2488)">
      <g id="Grupo_1852" data-name="Grupo 1852" transform="translate(978)">
        <g id="Grupo_1848" data-name="Grupo 1848" transform="translate(1485)">
          <g id="Grupo_1844" data-name="Grupo 1844" transform="translate(498)">
            <rect id="_1" data-name="1" width="406" height="251" transform="translate(4767 5508)" fill="#fff"/>
          </g>
        </g>
      </g>
    </g>
    <g id="_x30_1_1_" transform="translate(9745.8 5120.41)">
      <g id="Grupo_1864" data-name="Grupo 1864" transform="translate(504.2 497.59)">
        <g id="Grupo_1863" data-name="Grupo 1863" transform="translate(0 0)">
          <path id="Caminho_10004" data-name="Caminho 10004" d="M985.39,497.59v7.432h13.284V529h10.817V505.022h13.332V497.59Z" transform="translate(-807.192 -497.59)" fill="#0e0e16"/>
          <path id="Caminho_10005" data-name="Caminho 10005" d="M1103.44,497.59V529h10.725V497.59Z" transform="translate(-881.525 -497.59)" fill="#0e0e16"/>
          <path id="Caminho_10006" data-name="Caminho 10006" d="M1197.161,510.039a12.39,12.39,0,0,0-.8-2.777,11.947,11.947,0,0,0-1.626-2.855,13.524,13.524,0,0,0-2.777-2.607,17.252,17.252,0,0,0-4.159-2.2,30.562,30.562,0,0,0-5.892-1.448,48.354,48.354,0,0,0-6.584-.537c-.411-.007-.822-.011-1.241-.011h-1.407q-.606,0-1.2.011a49.372,49.372,0,0,0-6.677.537,30.009,30.009,0,0,0-5.936,1.448,17.488,17.488,0,0,0-4.155,2.2,13.723,13.723,0,0,0-2.777,2.607,11.379,11.379,0,0,0-1.6,2.877,13.718,13.718,0,0,0-.781,2.774,17.466,17.466,0,0,0-.178,2.552v1.222a17.059,17.059,0,0,0,.178,2.529,13.2,13.2,0,0,0,.781,2.792,11.81,11.81,0,0,0,1.6,2.9,13.513,13.513,0,0,0,2.8,2.655,17.9,17.9,0,0,0,4.159,2.24,29.742,29.742,0,0,0,5.914,1.492,50.25,50.25,0,0,0,7.873.57h1.407a49.854,49.854,0,0,0,7.851-.57,29.181,29.181,0,0,0,5.892-1.492,18.038,18.038,0,0,0,4.159-2.24,12.988,12.988,0,0,0,2.777-2.655,13.794,13.794,0,0,0,2.4-5.688,18.166,18.166,0,0,0,.178-2.529v-1.222A17.838,17.838,0,0,0,1197.161,510.039Zm-10.677,3.426a7.032,7.032,0,0,1-.555,2.777,7.856,7.856,0,0,1-1.933,2.592,9.837,9.837,0,0,1-4.159,2.037,24.627,24.627,0,0,1-5.781.744c-.315.007-.859.007-1.059.007a25.046,25.046,0,0,1-6.2-.767,9.523,9.523,0,0,1-4.136-2.081,8.323,8.323,0,0,1-1.892-2.607,7.034,7.034,0,0,1-.556-2.777V512.9q0-7.716,12.614-7.947c.255,0,1.029,0,1.4.011a25.882,25.882,0,0,1,4.562.493,14.188,14.188,0,0,1,3.87,1.285,7.544,7.544,0,0,1,2.315,1.878,6.293,6.293,0,0,1,1.2,2.122,7.351,7.351,0,0,1,.311,2.159v.563Z" transform="translate(-910.446 -497.596)" fill="#0e0e16"/>
          <path id="Caminho_10007" data-name="Caminho 10007" d="M1329.683,497.59v19.757L1307.83,497.6l-.011-.011H1295.85V529h10.588V508.185L1329.683,529h10.588V497.59h-10.588Z" transform="translate(-1002.68 -497.59)" fill="#0e0e16"/>
          <path id="Caminho_10008" data-name="Caminho 10008" d="M541.807,515.687a9.137,9.137,0,0,0-4.325-2.555q5.855-1.9,5.851-6.881v-.5q0-8.149-13.695-8.147H504.2v31.411h9.88V517.864h12.887c2.407,0,4.1.437,5.088,1.307a5.364,5.364,0,0,1,1.485,4.222v5.614h9.921v-8.658A6.623,6.623,0,0,0,541.807,515.687Zm-8.777-7.873a2.816,2.816,0,0,1-.974,2.237,4.516,4.516,0,0,1-3.011.844H514.077v-6.166h14.969a4.544,4.544,0,0,1,3.011.844,2.775,2.775,0,0,1,.974,2.2Z" transform="translate(-504.2 -497.596)" fill="#0e0e16"/>
          <path id="Caminho_10009" data-name="Caminho 10009" d="M734.209,509.95a7.009,7.009,0,0,1,1.8-2.485,8.781,8.781,0,0,1,3.777-1.859,23.485,23.485,0,0,1,5.866-.67V497.6H649.33v31.411h38.814l2.933-5.67h22.342l2.929,5.67h29.308v-7.392a20.107,20.107,0,0,1-5.666-.774,9.065,9.065,0,0,1-3.822-2.059,8.765,8.765,0,0,1-1.892-2.652,6.977,6.977,0,0,1-.6-2.837v-.489A7.484,7.484,0,0,1,734.209,509.95Zm-39.532,6.388,5.9-11.388h3.34l5.9,11.388Z" transform="translate(-595.584 -497.596)" fill="url(#linear-gradient)"/>
          <path id="Caminho_10010" data-name="Caminho 10010" d="M882.967,516.232a.29.29,0,0,1-.044.122q-1.822,5.26-12.01,5.262c-.1,0-.2,0-.293,0a20.1,20.1,0,0,1-5.666-.774,9.08,9.08,0,0,1-3.826-2.059,8.811,8.811,0,0,1-1.892-2.652,7.038,7.038,0,0,1-.6-2.837V512.8a7.48,7.48,0,0,1,.533-2.855,7.07,7.07,0,0,1,1.8-2.485,8.839,8.839,0,0,1,3.781-1.859,23.468,23.468,0,0,1,5.866-.674h.2a26.3,26.3,0,0,1,5.27.47,15.547,15.547,0,0,1,3.47,1.041,6.979,6.979,0,0,1,2,1.429,6.664,6.664,0,0,1,1.022,1.244,4.507,4.507,0,0,1,.333.878h10.984v-.448a8.908,8.908,0,0,0-.422-2.633,9.5,9.5,0,0,0-1.866-3.1,13.753,13.753,0,0,0-3.737-3.059,23.053,23.053,0,0,0-6.473-2.244,43.892,43.892,0,0,0-8.806-.911c-.278,0-.563-.007-.844-.007h-1.822c-.293,0-.581,0-.867.007a39.223,39.223,0,0,0-8.94,1.052,20.582,20.582,0,0,0-6.473,2.611,13.163,13.163,0,0,0-3.67,3.714,12.584,12.584,0,0,0-1.8,3.914,16.459,16.459,0,0,0-.4,3.714v1.181a16.137,16.137,0,0,0,.2,2.529,12.339,12.339,0,0,0,.844,2.815,13.973,13.973,0,0,0,1.626,2.9,13.2,13.2,0,0,0,2.715,2.67,17.213,17.213,0,0,0,3.981,2.244,27.35,27.35,0,0,0,5.536,1.492,42.822,42.822,0,0,0,7.247.57h1.822a43.782,43.782,0,0,0,9.54-.937,23.305,23.305,0,0,0,6.47-2.285,13.937,13.937,0,0,0,3.781-3.118,10.278,10.278,0,0,0,1.937-3.2,8.913,8.913,0,0,0,.467-2.774v-.448H882.967Z" transform="translate(-720.549 -497.59)" fill="#0e0e16"/>
          <path id="Caminho_10011" data-name="Caminho 10011" d="M637.768,521.695v-5.148h24.9V509.37h-24.9v-4.648h25.5V497.59H627.18V529h36.544v-7.307Z" transform="translate(-581.637 -497.59)" fill="#0e0e16"/>
        </g>
      </g>
    </g>
  </g>
</svg>
