<svg xmlns="http://www.w3.org/2000/svg" width="406" height="251" viewBox="0 0 406 251">
  <g id="Grupo_1857" data-name="Grupo 1857" transform="translate(-8692 -5508)">
    <g id="Grupo_1855" data-name="Grupo 1855" transform="translate(964)">
      <g id="Grupo_1852" data-name="Grupo 1852" transform="translate(978)">
        <g id="Grupo_1848" data-name="Grupo 1848" transform="translate(1485)">
          <g id="Grupo_1844" data-name="Grupo 1844" transform="translate(498)">
            <rect id="_1" data-name="1" width="406" height="251" transform="translate(4767 5508)" fill="#fff"/>
          </g>
        </g>
      </g>
    </g>
    <path id="logo_2" d="M196.135,127.558a2.767,2.767,0,1,1,.815,1.961A2.767,2.767,0,0,1,196.135,127.558Zm-2.724,0A5.493,5.493,0,1,1,200,132.94V195.4a5.491,5.491,0,1,1-2.726.137V132.8a5.493,5.493,0,0,1-3.859-5.245Zm77.276,37.567V137.659h9.408c7.379,0,11.3,3.767,11.3,11.144v5.181c0,7.379-3.923,11.146-11.3,11.146Zm9.5-22.762H275.87v18.052h4.317c4.159,0,6.042-2.275,6.042-6.28v-5.493C286.229,144.64,284.345,142.363,280.186,142.363Zm18.922,9.771-4.552-1.529c.943-2.944,3.571-5.495,8.634-5.495,5.1,0,8.319,2.63,8.319,7.5v12.519h-4.7v-2.277h-.558c-.353.855-1.648,2.827-5.26,2.827-4,0-7.141-2.239-7.141-6.241s3.139-6.083,7.535-6.083h5.345v-1.1c0-1.8-1.1-3.218-3.611-3.218A3.664,3.664,0,0,0,299.109,152.134Zm2.63,4.907c-1.845,0-2.942.941-2.942,2.275,0,1.375,1.1,2.352,3.218,2.352,2.745,0,4.7-1.725,4.7-4.315v-.314Zm16.382-7.379h-4.866v-4h4.866v-6.044h4.945v6.044h5.345v4h-5.345v10.282c0,.785.391,1.178,1.1,1.178h3.767v4h-5.495a4.1,4.1,0,0,1-4.317-4.4Zm17.894,2.472-4.552-1.529c.941-2.944,3.571-5.495,8.634-5.495,5.1,0,8.319,2.63,8.319,7.5v12.519h-4.7v-2.277h-.549c-.353.855-1.646,2.827-5.258,2.827-4,0-7.141-2.239-7.141-6.241s3.139-6.083,7.535-6.083h5.345v-1.1c0-1.8-1.1-3.218-3.611-3.218A3.667,3.667,0,0,0,336.015,152.134Zm2.63,4.907c-1.845,0-2.944.941-2.944,2.275,0,1.375,1.1,2.352,3.207,2.352,2.747,0,4.7-1.725,4.7-4.315v-.314Zm24.588,8.084V137.659H372.1l5.927,22.211h.391l5.933-22.211h8.869v27.466H388.2V142.991h-.393l-5.925,22.134h-7.3l-5.927-22.134h-.391v22.134ZM402,152.134l-4.552-1.529c.941-2.944,3.571-5.495,8.634-5.495,5.1,0,8.319,2.63,8.319,7.5v12.519h-4.7v-2.277h-.549c-.353.855-1.646,2.827-5.258,2.827-4,0-7.141-2.239-7.141-6.241s3.139-6.083,7.535-6.083h5.345v-1.1c0-1.8-1.1-3.218-3.611-3.218a3.66,3.66,0,0,0-4.011,3.1Zm2.63,4.907c-1.845,0-2.944.941-2.944,2.275,0,1.375,1.1,2.352,3.207,2.352,2.747,0,4.7-1.725,4.7-4.315v-.314Zm22.878,8.634a10.283,10.283,0,0,1,0-20.564c5.418,0,8.713,3.179,9.577,7.535l-4.789,1.02a4.416,4.416,0,0,0-4.7-4.238c-2.978,0-5.245,2.2-5.245,5.965s2.275,5.965,5.258,5.965,4.434-1.766,4.866-4.276l4.789,1.137c-1.1,4.276-4.28,7.449-9.737,7.449Zm12.784-.549V137.659h4.943v10.753h.417c.746-1.5,2.352-3.062,5.923-3.062,4.554,0,7.577,3.335,7.577,8.163v11.616H454.2V153.744c0-2.944-1.5-4.4-4.159-4.4-3.021,0-4.787,2.119-4.787,5.73v10.049Zm25.465-21.742a3.488,3.488,0,1,1,.015,0Zm11.824,21.742h-4.945V145.668h4.875v2.895h.393c.785-1.648,2.433-3.218,6-3.218,4.552,0,7.573,3.335,7.573,8.163v11.616h-4.943V153.744c0-2.944-1.5-4.4-4.159-4.4-3.023,0-4.789,2.119-4.789,5.73Zm22.38-12.991-4.554-1.529c.943-2.944,3.573-5.495,8.634-5.495,5.1,0,8.319,2.63,8.319,7.5v12.519h-4.7v-2.277h-.549c-.353.855-1.648,2.827-5.26,2.827-4,0-7.141-2.239-7.141-6.241s3.139-6.083,7.535-6.083h5.345v-1.1c0-1.8-1.1-3.218-3.609-3.218A3.666,3.666,0,0,0,499.96,152.134Zm2.63,4.907c-1.845,0-2.944.941-2.944,2.275,0,1.375,1.1,2.352,3.207,2.352,2.747,0,4.7-1.725,4.7-4.315v-.314Zm-226.52,22.39h-5.446v.958h2.209v6.671h-2.209v.956h5.446v-.956h-2.209v-6.671h2.209Zm2.1,8.585h.958v-3.164a2.4,2.4,0,0,1,.49-1.582,1.7,1.7,0,0,1,1.373-.6,1.5,1.5,0,0,1,1.165.479,2.1,2.1,0,0,1,.428,1.435v3.434h.956v-3.635a2.728,2.728,0,0,0-.624-1.961,2.2,2.2,0,0,0-1.681-.663,2,2,0,0,0-1.963,1.2h-.145v-1.031h-.958Zm9.213-6.083h-1.911v.883h1.911v4.244a.956.956,0,0,0,.259.686.93.93,0,0,0,.686.269H290.4v-.883h-1.728c-.214,0-.331-.122-.331-.368v-3.949h2.352v-.883h-2.352v-2.5h-.958Zm7.069,4.8a2.17,2.17,0,0,1-.564-1.46h4.9v-.785a2.865,2.865,0,0,0-.686-1.766,2.7,2.7,0,0,0-.9-.673,2.743,2.743,0,0,0-1.283-.282,3.008,3.008,0,0,0-1.189.233,2.9,2.9,0,0,0-1.582,1.569,3.168,3.168,0,0,0-.214,1.189v.3a3.538,3.538,0,0,0,.214,1.283,2.993,2.993,0,0,0,.614.992,2.734,2.734,0,0,0,.932.641,3.194,3.194,0,0,0,1.2.214,3,3,0,0,0,1.864-.526,2.694,2.694,0,0,0,.956-1.385l-.907-.246a2.339,2.339,0,0,1-.233.49,1.426,1.426,0,0,1-.37.393,1.632,1.632,0,0,1-.539.269,2.521,2.521,0,0,1-.748.1A1.937,1.937,0,0,1,294.452,186.728Zm.712-3.923a2.072,2.072,0,0,1,.759-.137,1.97,1.97,0,0,1,.686.124,1.905,1.905,0,0,1,.6.342,1.612,1.612,0,0,1,.428.541,1.7,1.7,0,0,1,.2.71h-3.921a2.014,2.014,0,0,1,.214-.674,2.1,2.1,0,0,1,.428-.552A1.89,1.89,0,0,1,295.164,182.8Zm7.74,4.328h-2.215v.883h5.371v-.883h-2.2v-7.7H300.77v.883h2.138Zm7.436-7.616a.825.825,0,0,0-.246.6.84.84,0,0,0,.857.86.815.815,0,0,0,.6-.246.838.838,0,0,0,.257-.614.877.877,0,0,0-.855-.855A.838.838,0,0,0,310.34,179.516Zm.148,7.616H308.35v.883h5.076v-.883h-1.982v-5.2h-2.869v.883H310.5Zm9.7-.049h.145v2.138c0,.246-.109.368-.329.368h-3.618v.881h3.968a.9.9,0,0,0,.676-.269.93.93,0,0,0,.269-.686v-7.582h-.966v.958h-.145a1.943,1.943,0,0,0-.787-.834,2.185,2.185,0,0,0-1.152-.3,3.1,3.1,0,0,0-1.127.214,2.713,2.713,0,0,0-.945.614,2.915,2.915,0,0,0-.641.981,3.343,3.343,0,0,0-.246,1.313v.2a3.635,3.635,0,0,0,.233,1.336,2.758,2.758,0,0,0,1.608,1.569,3.168,3.168,0,0,0,1.152.214,2.3,2.3,0,0,0,1.1-.269,2,2,0,0,0,.8-.847Zm-1.093.036a1.976,1.976,0,0,1-.8.16,2.149,2.149,0,0,1-.808-.148,2.081,2.081,0,0,1-.641-.44,2.263,2.263,0,0,1-.428-.7,2.675,2.675,0,0,1-.147-.919v-.2a2.6,2.6,0,0,1,.148-.9,2.263,2.263,0,0,1,.428-.7,1.982,1.982,0,0,1,.641-.453,2.051,2.051,0,0,1,.808-.16,1.815,1.815,0,0,1,.785.173,1.792,1.792,0,0,1,.641.453,2.112,2.112,0,0,1,.443.712,2.4,2.4,0,0,1,.158.894v.148a2.538,2.538,0,0,1-.158.919,2.119,2.119,0,0,1-.443.7,1.819,1.819,0,0,1-.629.453Zm5.388-.391a2.149,2.149,0,0,1-.564-1.46h4.9v-.785a2.657,2.657,0,0,0-.171-.883,2.58,2.58,0,0,0-.515-.883,2.865,2.865,0,0,0-2.183-.956,3.009,3.009,0,0,0-1.189.233,2.9,2.9,0,0,0-1.582,1.569,3.169,3.169,0,0,0-.214,1.189v.3a3.537,3.537,0,0,0,.214,1.283,2.993,2.993,0,0,0,.614.992,2.735,2.735,0,0,0,.932.641,3.2,3.2,0,0,0,1.2.214,2.989,2.989,0,0,0,1.862-.526,2.7,2.7,0,0,0,.958-1.385l-.913-.237a2.138,2.138,0,0,1-.233.49,1.388,1.388,0,0,1-.368.393,1.674,1.674,0,0,1-.539.269,2.521,2.521,0,0,1-.748.1A1.937,1.937,0,0,1,324.488,186.728Zm.71-3.923a2.091,2.091,0,0,1,.761-.137,1.969,1.969,0,0,1,.686.124,1.905,1.905,0,0,1,.6.342,1.64,1.64,0,0,1,.428.541,1.7,1.7,0,0,1,.2.71h-3.923a2.066,2.066,0,0,1,.214-.674,2.019,2.019,0,0,1,.428-.552,1.882,1.882,0,0,1,.609-.355Zm.8-2.859.641,1.08h1.028l-.981-1.448h-1.52l-.981,1.448h1.031l.641-1.08Zm4.738,8.069h.958v-3.164a2.4,2.4,0,0,1,.492-1.582,1.7,1.7,0,0,1,1.373-.6,1.5,1.5,0,0,1,1.165.479,2.1,2.1,0,0,1,.428,1.435v3.434h.956v-3.635a2.728,2.728,0,0,0-.624-1.961,2.2,2.2,0,0,0-1.681-.663,2,2,0,0,0-1.963,1.2h-.145v-1.031h-.956Zm12.856-1.225a3.047,3.047,0,0,0,.342-.932l-.956-.214a2.037,2.037,0,0,1-.2.614,1.687,1.687,0,0,1-.381.528,1.924,1.924,0,0,1-.575.368,2.085,2.085,0,0,1-.785.135,2.38,2.38,0,0,1-.855-.148,2.138,2.138,0,0,1-.686-.44,2.023,2.023,0,0,1-.466-.686,2.585,2.585,0,0,1-.16-.932v-.147a2.512,2.512,0,0,1,.16-.909,2.1,2.1,0,0,1,.466-.71,1.959,1.959,0,0,1,.674-.466,2.053,2.053,0,0,1,.834-.173,2.139,2.139,0,0,1,.8.137,1.661,1.661,0,0,1,.577.368,1.526,1.526,0,0,1,.378.526,1.814,1.814,0,0,1,.184.614l.958-.214a2.855,2.855,0,0,0-.331-.932,2.4,2.4,0,0,0-.614-.736,2.613,2.613,0,0,0-.855-.492,3.246,3.246,0,0,0-1.069-.171,3.361,3.361,0,0,0-1.214.214,3.077,3.077,0,0,0-.994.626,2.993,2.993,0,0,0-.686.992,3.437,3.437,0,0,0-.246,1.326v.148a3.373,3.373,0,0,0,.246,1.324,2.85,2.85,0,0,0,1.681,1.582,3.546,3.546,0,0,0,1.214.214,3.259,3.259,0,0,0,1.09-.171,2.54,2.54,0,0,0,1.46-1.225Zm4.3-7.27a.819.819,0,0,0-.246.6.84.84,0,0,0,.855.855.815.815,0,0,0,.6-.246.838.838,0,0,0,.257-.614.877.877,0,0,0-.855-.855.838.838,0,0,0-.612.254Zm.148,7.616h-2.138v.883h5.076v-.883h-1.986v-5.2h-2.869v.883h1.924Zm9.5-.148h.147v.075a.956.956,0,0,0,.257.686.93.93,0,0,0,.686.269h.641v-.883h-.306c-.214,0-.331-.122-.331-.368v-4.832h-.956v.958h-.148a1.888,1.888,0,0,0-.81-.855,2.26,2.26,0,0,0-1.127-.282,2.887,2.887,0,0,0-1.093.214,2.641,2.641,0,0,0-.907.614,2.807,2.807,0,0,0-.6.969,3.687,3.687,0,0,0-.214,1.326v.2a3.715,3.715,0,0,0,.214,1.336,2.927,2.927,0,0,0,.6.981,2.7,2.7,0,0,0,.907.6,3.123,3.123,0,0,0,1.116.195,2.151,2.151,0,0,0,1.1-.284,1.98,1.98,0,0,0,.821-.919Zm-1.031.135a2.027,2.027,0,0,1-2.207-.417,2.3,2.3,0,0,1-.541-1.629v-.2a2.6,2.6,0,0,1,.147-.9,2.033,2.033,0,0,1,.4-.7,1.867,1.867,0,0,1,1.411-.614,1.942,1.942,0,0,1,1.4.626,2.061,2.061,0,0,1,.417.712,2.587,2.587,0,0,1,.148.894v.148a2.737,2.737,0,0,1-.147.919,2.183,2.183,0,0,1-.4.7,1.723,1.723,0,0,1-.631.449Zm106.8-41.46h4.945v19.457H463.3Zm-93.765,41.065a2.148,2.148,0,0,1-.564-1.46h4.9v-.785a2.659,2.659,0,0,0-.171-.883,2.58,2.58,0,0,0-.515-.883,2.865,2.865,0,0,0-2.183-.956,3.026,3.026,0,0,0-1.191.233,2.91,2.91,0,0,0-1.58,1.569,3.168,3.168,0,0,0-.214,1.189v.3a3.54,3.54,0,0,0,.214,1.283,2.993,2.993,0,0,0,.611.992,2.78,2.78,0,0,0,.932.641,3.208,3.208,0,0,0,1.2.214,2.993,2.993,0,0,0,1.864-.526,2.711,2.711,0,0,0,.958-1.385l-.909-.246a2.234,2.234,0,0,1-.233.49,1.387,1.387,0,0,1-.368.393,1.674,1.674,0,0,1-.539.269,2.528,2.528,0,0,1-.748.1A1.924,1.924,0,0,1,369.536,186.728Zm.71-3.923a2.091,2.091,0,0,1,.761-.137,1.97,1.97,0,0,1,.686.124,1.9,1.9,0,0,1,.6.342,1.64,1.64,0,0,1,.428.541,1.727,1.727,0,0,1,.2.71H369a2.015,2.015,0,0,1,.214-.673,2.052,2.052,0,0,1,.428-.552,1.924,1.924,0,0,1,.609-.355Zm10.428,5.211h.958v-4.685a1.646,1.646,0,0,0-.381-1.129,1.3,1.3,0,0,0-1.054-.44,1.39,1.39,0,0,0-1.326.834h-.141a1.172,1.172,0,0,0-.4-.6,1.1,1.1,0,0,0-.723-.233,1.261,1.261,0,0,0-.725.214,1.23,1.23,0,0,0-.466.626h-.147v-.663h-.956v6.083h.956v-4.2a1.385,1.385,0,0,1,.233-.834.819.819,0,0,1,.689-.321.718.718,0,0,1,.588.272.975.975,0,0,1,.214.661v4.415h.956V183.9a1.428,1.428,0,0,1,.244-.919.827.827,0,0,1,.663-.308.712.712,0,0,1,.626.282,1.161,1.161,0,0,1,.195.7Zm10.971-2.138h3.68l.627,2.138h1.1l-2.6-8.585h-1.937l-2.6,8.585h1.1Zm.282-.956,1.484-5.052h.147l1.484,5.052Zm6.382,3.09h.956v-3.164a2.41,2.41,0,0,1,.49-1.582,1.71,1.71,0,0,1,1.375-.6,1.5,1.5,0,0,1,1.165.479,2.088,2.088,0,0,1,.428,1.435v3.434h.958v-3.635a2.722,2.722,0,0,0-.627-1.961,2.2,2.2,0,0,0-1.678-.663,2,2,0,0,0-1.963,1.2h-.147v-1.031h-.956Zm11.777-1.031h.145v.075a.956.956,0,0,0,.259.686.93.93,0,0,0,.686.269h.641v-.883h-.306c-.214,0-.331-.122-.331-.368v-4.832h-.958v.958h-.145a1.887,1.887,0,0,0-.81-.855,2.269,2.269,0,0,0-1.129-.282,2.876,2.876,0,0,0-1.09.214,2.668,2.668,0,0,0-.909.614,2.872,2.872,0,0,0-.6.969,3.737,3.737,0,0,0-.214,1.326v.2a3.765,3.765,0,0,0,.214,1.336,2.993,2.993,0,0,0,.6.981,2.727,2.727,0,0,0,.909.6,3.105,3.105,0,0,0,1.116.195,2.157,2.157,0,0,0,1.09-.293,1.98,1.98,0,0,0,.838-.9Zm-1.031.135a2.029,2.029,0,0,1-2.209-.417,2.321,2.321,0,0,1-.539-1.629v-.2a2.6,2.6,0,0,1,.148-.9,2.033,2.033,0,0,1,.4-.7,1.867,1.867,0,0,1,1.411-.614,1.941,1.941,0,0,1,1.4.626,2.061,2.061,0,0,1,.428.712,2.639,2.639,0,0,1,.145.894v.148a2.794,2.794,0,0,1-.145.919,2.139,2.139,0,0,1-.406.7,1.711,1.711,0,0,1-.629.458Zm-.5-6.094,1.028-1.447h-1.1l-.808,1.447Zm6.981,6.106h-2.207v.883h5.386v-.883H416.5v-7.7h-3.09v.883h2.138Zm7.436-7.616a.819.819,0,0,0-.246.6.84.84,0,0,0,.855.855.81.81,0,0,0,.6-.246.832.832,0,0,0,.259-.614.881.881,0,0,0-.855-.855.834.834,0,0,0-.607.263Zm.145,7.616h-2.138v.883h5.078v-.883h-1.986v-5.2H421.2v.883h1.911Zm6.859-2.955a.755.755,0,0,1-.368-.676.642.642,0,0,1,.111-.378.855.855,0,0,1,.3-.282,1.284,1.284,0,0,1,.417-.16,2.06,2.06,0,0,1,.5-.062,1.635,1.635,0,0,1,1.069.331,1.31,1.31,0,0,1,.479.922l.907-.214a2.252,2.252,0,0,0-.214-.686,1.751,1.751,0,0,0-.466-.6,2.3,2.3,0,0,0-.761-.428,2.993,2.993,0,0,0-1.054-.171,2.962,2.962,0,0,0-.821.111,2.352,2.352,0,0,0-.712.329,1.676,1.676,0,0,0-.492.554,1.474,1.474,0,0,0-.184.746v.075a1.418,1.418,0,0,0,.564,1.214,3.058,3.058,0,0,0,1.619.49,3.367,3.367,0,0,1,1.313.282.772.772,0,0,1,.4.736.855.855,0,0,1-.417.748,1.989,1.989,0,0,1-1.069.259,1.873,1.873,0,0,1-1.283-.428,1.64,1.64,0,0,1-.539-1.127l-.909.214a2.454,2.454,0,0,0,.2.81,2.234,2.234,0,0,0,.5.71,2.734,2.734,0,0,0,.855.5,3.634,3.634,0,0,0,1.227.184,3.315,3.315,0,0,0,.969-.135,2.045,2.045,0,0,0,.759-.368,1.718,1.718,0,0,0,.676-1.386v-.073a1.428,1.428,0,0,0-.564-1.227,3.013,3.013,0,0,0-1.619-.515,3.214,3.214,0,0,1-1.388-.3Zm7.141,2.551a2.159,2.159,0,0,1-.564-1.46h4.9v-.78a2.865,2.865,0,0,0-.686-1.766,2.713,2.713,0,0,0-.894-.674,2.752,2.752,0,0,0-1.283-.282,3.015,3.015,0,0,0-1.189.233,2.9,2.9,0,0,0-1.582,1.569,3.169,3.169,0,0,0-.214,1.189v.3a3.54,3.54,0,0,0,.214,1.283,2.994,2.994,0,0,0,.614.992,2.734,2.734,0,0,0,.932.641,3.193,3.193,0,0,0,1.2.214,3,3,0,0,0,1.864-.526,2.707,2.707,0,0,0,.956-1.385l-.909-.246a2.139,2.139,0,0,1-.231.49,1.388,1.388,0,0,1-.368.393,1.674,1.674,0,0,1-.539.269,2.544,2.544,0,0,1-.75.1,1.937,1.937,0,0,1-1.471-.543Zm.712-3.923a2.072,2.072,0,0,1,.759-.137,1.968,1.968,0,0,1,.686.124,1.925,1.925,0,0,1,.6.342,1.633,1.633,0,0,1,.428.541,1.7,1.7,0,0,1,.2.71h-3.923a1.972,1.972,0,0,1,.641-1.225,1.891,1.891,0,0,1,.616-.351Zm17.6,4.276h.148v.932h.958v-8.578h-.958v3.459h-.148a1.833,1.833,0,0,0-.855-.855,2.476,2.476,0,0,0-1.165-.282,3.009,3.009,0,0,0-1.116.214,2.63,2.63,0,0,0-.919.614,2.83,2.83,0,0,0-.624.981,3.464,3.464,0,0,0-.235,1.313v.2a3.832,3.832,0,0,0,.214,1.336,2.854,2.854,0,0,0,.629.969,2.818,2.818,0,0,0,.93.6,3.075,3.075,0,0,0,1.14.214,2.325,2.325,0,0,0,.564-.073,2.106,2.106,0,0,0,.554-.2,2.039,2.039,0,0,0,.49-.342,1.673,1.673,0,0,0,.4-.5Zm-1.088.036a1.987,1.987,0,0,1-.8.16,2.138,2.138,0,0,1-.808-.148,2.08,2.08,0,0,1-.641-.44,2.262,2.262,0,0,1-.428-.7,2.675,2.675,0,0,1-.148-.919v-.2a2.6,2.6,0,0,1,.148-.9,2.263,2.263,0,0,1,.428-.7,1.982,1.982,0,0,1,.641-.453,2.05,2.05,0,0,1,.808-.16,1.821,1.821,0,0,1,.785.173,1.8,1.8,0,0,1,.652.453,2.076,2.076,0,0,1,.44.712,2.4,2.4,0,0,1,.158.894v.148a2.537,2.537,0,0,1-.158.919,2.081,2.081,0,0,1-.44.7,1.839,1.839,0,0,1-.631.46Zm5.3-.391a2.149,2.149,0,0,1-.564-1.46h4.9v-.778a2.657,2.657,0,0,0-.171-.883,2.58,2.58,0,0,0-.515-.883,2.714,2.714,0,0,0-.894-.674,2.752,2.752,0,0,0-1.283-.282,3.009,3.009,0,0,0-1.189.233,2.9,2.9,0,0,0-1.582,1.569,3.168,3.168,0,0,0-.214,1.189v.3a3.537,3.537,0,0,0,.214,1.283,3.017,3.017,0,0,0,.612.992,2.78,2.78,0,0,0,.932.641,3.208,3.208,0,0,0,1.2.214,2.99,2.99,0,0,0,1.864-.526,2.711,2.711,0,0,0,.958-1.385l-.909-.246a2.228,2.228,0,0,1-.231.49,1.417,1.417,0,0,1-.368.393,1.665,1.665,0,0,1-.541.269,2.52,2.52,0,0,1-.748.1,1.924,1.924,0,0,1-1.471-.543Zm.71-3.923a2.091,2.091,0,0,1,.761-.137,1.969,1.969,0,0,1,.686.124,1.924,1.924,0,0,1,.6.342,1.634,1.634,0,0,1,.428.541,1.727,1.727,0,0,1,.2.71H459.1a2.118,2.118,0,0,1,.214-.673,2.059,2.059,0,0,1,.428-.552,1.881,1.881,0,0,1,.616-.348Zm15.7-3.374h-2.814v.958h.738v6.667h-.738v.969h2.822a3.121,3.121,0,0,0,2.328-.759,3.4,3.4,0,0,0,.738-2.429v-2.211a3.386,3.386,0,0,0-.738-2.427,3.135,3.135,0,0,0-2.331-.761Zm.819,7.518a3.636,3.636,0,0,1-.966.111h-.909v-6.671h.909a3.737,3.737,0,0,1,.966.109,1.515,1.515,0,0,1,.688.381,1.484,1.484,0,0,1,.391.7,3.893,3.893,0,0,1,.137,1.116v2.059a3.873,3.873,0,0,1-.137,1.116,1.4,1.4,0,0,1-1.069,1.069Zm8.307.036h.147v.075a.956.956,0,0,0,.257.686.93.93,0,0,0,.686.269h.641v-.883H486.6c-.214,0-.331-.122-.331-.368v-4.832h-.956v.958h-.148a1.894,1.894,0,0,0-.808-.855,2.269,2.269,0,0,0-1.129-.282,2.887,2.887,0,0,0-1.093.214,2.669,2.669,0,0,0-.909.614,2.867,2.867,0,0,0-.6.969,3.69,3.69,0,0,0-.214,1.326v.2a3.718,3.718,0,0,0,.214,1.336,2.994,2.994,0,0,0,.6.981,2.729,2.729,0,0,0,.909.6,3.124,3.124,0,0,0,1.116.195,2.151,2.151,0,0,0,1.1-.274,1.98,1.98,0,0,0,.827-.919Zm-1.031.135a2.027,2.027,0,0,1-2.206-.417,2.321,2.321,0,0,1-.539-1.629v-.2a2.6,2.6,0,0,1,.147-.9,2,2,0,0,1,.4-.7,1.866,1.866,0,0,1,1.411-.614,1.738,1.738,0,0,1,.772.173,1.711,1.711,0,0,1,.627.453,2.061,2.061,0,0,1,.417.712,2.586,2.586,0,0,1,.148.894v.148a2.737,2.737,0,0,1-.147.919,2.138,2.138,0,0,1-.406.7,1.7,1.7,0,0,1-.618.46Zm8.833-.036h.147v.932h.958v-8.578h-.958v3.459h-.147a1.833,1.833,0,0,0-.845-.855,2.476,2.476,0,0,0-1.165-.282,3.008,3.008,0,0,0-1.116.214,2.631,2.631,0,0,0-.919.614,2.831,2.831,0,0,0-.624.981,3.463,3.463,0,0,0-.235,1.313v.2a3.832,3.832,0,0,0,.214,1.336,2.854,2.854,0,0,0,.629.969,2.818,2.818,0,0,0,.93.6,3.075,3.075,0,0,0,1.14.214,2.323,2.323,0,0,0,.564-.073,2.1,2.1,0,0,0,.554-.2,2.038,2.038,0,0,0,.49-.342,1.673,1.673,0,0,0,.391-.5Zm-1.088.036a1.986,1.986,0,0,1-.8.16,2.139,2.139,0,0,1-.808-.148,2.08,2.08,0,0,1-.641-.44,2.262,2.262,0,0,1-.428-.7,2.674,2.674,0,0,1-.148-.919v-.2a2.6,2.6,0,0,1,.147-.9,2.263,2.263,0,0,1,.428-.7,1.982,1.982,0,0,1,.641-.453,2.051,2.051,0,0,1,.808-.16,1.821,1.821,0,0,1,.785.173,1.8,1.8,0,0,1,.641.453,2.076,2.076,0,0,1,.44.712,2.4,2.4,0,0,1,.158.894v.148a2.537,2.537,0,0,1-.158.919,2.08,2.08,0,0,1-.441.7,1.838,1.838,0,0,1-.62.46Zm9.519-.723a3.345,3.345,0,0,0,.259-1.349v-.13a3.227,3.227,0,0,0-.259-1.323,2.874,2.874,0,0,0-1.644-1.608,3.305,3.305,0,0,0-2.3,0,2.97,2.97,0,0,0-.981.614,3.069,3.069,0,0,0-.673.994,3.375,3.375,0,0,0-.246,1.323v.148a3.5,3.5,0,0,0,.246,1.349,3.1,3.1,0,0,0,.674.981,2.908,2.908,0,0,0,.971.6,3.336,3.336,0,0,0,2.316,0,2.872,2.872,0,0,0,.981-.6,2.978,2.978,0,0,0,.669-.981Zm-1.986.736a2.16,2.16,0,0,1-.81.148,2.25,2.25,0,0,1-.821-.148,2.006,2.006,0,0,1-.641-.453,2.138,2.138,0,0,1-.443-.7,2.623,2.623,0,0,1-.158-.932v-.13a2.443,2.443,0,0,1,.158-.894,2.112,2.112,0,0,1,.443-.712,2.055,2.055,0,0,1,2.942,0,2.112,2.112,0,0,1,.443.712,2.445,2.445,0,0,1,.16.894v.148a2.622,2.622,0,0,1-.16.932,2.137,2.137,0,0,1-.443.7,1.961,1.961,0,0,1-.663.443Zm5.645-2.955a.755.755,0,0,1-.368-.676.641.641,0,0,1,.109-.378.887.887,0,0,1,.3-.282,1.283,1.283,0,0,1,.428-.16,2.1,2.1,0,0,1,.5-.062,1.63,1.63,0,0,1,1.069.331,1.3,1.3,0,0,1,.481.922l.907-.214a2.25,2.25,0,0,0-.214-.686,1.751,1.751,0,0,0-.466-.6,2.3,2.3,0,0,0-.761-.428,3.229,3.229,0,0,0-1.877-.06,2.407,2.407,0,0,0-.712.329,1.669,1.669,0,0,0-.49.554,1.473,1.473,0,0,0-.184.746v.075a1.418,1.418,0,0,0,.564,1.214,3.069,3.069,0,0,0,1.619.49,3.379,3.379,0,0,1,1.313.282.772.772,0,0,1,.4.736.855.855,0,0,1-.428.748,1.988,1.988,0,0,1-1.069.259,1.873,1.873,0,0,1-1.283-.428,1.64,1.64,0,0,1-.539-1.127l-.909.214a2.508,2.508,0,0,0,.2.81,2.2,2.2,0,0,0,.5.71,2.735,2.735,0,0,0,.855.5,3.635,3.635,0,0,0,1.227.184,3.3,3.3,0,0,0,.966-.135,2.04,2.04,0,0,0,.761-.368,1.675,1.675,0,0,0,.49-.588,1.7,1.7,0,0,0,.186-.8v-.073a1.428,1.428,0,0,0-.564-1.227,3.026,3.026,0,0,0-1.619-.515,3.217,3.217,0,0,1-1.39-.3Zm-272.476-4.462a2.767,2.767,0,1,0,2.765,2.767A2.767,2.767,0,0,0,232.588,179.709Zm-1.627-2.48a5.493,5.493,0,1,0,2.724-.135V151.246a5.491,5.491,0,1,0-2.724-.135Zm-68.505,5.247a2.767,2.767,0,1,1,2.767,2.767,2.767,2.767,0,0,1-2.767-2.767Zm-2.726,0a5.5,5.5,0,0,1,3.864-5.245V151.11a5.493,5.493,0,1,1,2.726.137v25.848a5.493,5.493,0,1,1-6.59,5.382Zm39.185,15.54a2.767,2.767,0,1,0,2.767,2.767,2.767,2.767,0,0,0-2.767-2.767ZM232.588,143.1a2.767,2.767,0,1,0,2.765,2.767,2.767,2.767,0,0,0-2.765-2.767Zm-70.13,2.767a2.767,2.767,0,1,1,2.767,2.767,2.767,2.767,0,0,1-2.767-2.767Z" transform="translate(8559.271 5468.936)" fill="#142647" fill-rule="evenodd"/>
  </g>
</svg>
