<svg id="OBJECTS" xmlns="http://www.w3.org/2000/svg" viewBox="0 0 2658 1207"><defs><style>.cls-1,.cls-12,.cls-13,.cls-14,.cls-15,.cls-2,.cls-22,.cls-24,.cls-25,.cls-26,.cls-29,.cls-30,.cls-31,.cls-32,.cls-34,.cls-35,.cls-36,.cls-37,.cls-38,.cls-39,.cls-40,.cls-42,.cls-43,.cls-6,.cls-7,.cls-9{fill:none;stroke-miterlimit:10;}.cls-1,.cls-29,.cls-30,.cls-31,.cls-32,.cls-6,.cls-9{stroke:#cdd0c4;}.cls-1{stroke-dasharray:4;}.cls-2,.cls-22,.cls-36,.cls-7{stroke:#f6a915;}.cls-2{stroke-width:1.31px;}.cls-3{fill:#cdd0c4;}.cls-4{fill:#ff7e54;}.cls-5{fill:#4b53e4;}.cls-6{stroke-width:0.72px;}.cls-7{stroke-width:0.88px;}.cls-8{fill:#f6a915;}.cls-9{stroke-width:0.49px;}.cls-10,.cls-23{fill:#fff;}.cls-11{fill:#30b47a;}.cls-12{stroke:#0c8563;stroke-width:2px;}.cls-13,.cls-15,.cls-25,.cls-26,.cls-34,.cls-39,.cls-42,.cls-43{stroke:#fff;}.cls-13,.cls-43{stroke-width:4.67px;}.cls-14{stroke:#d15036;stroke-width:1.76px;}.cls-15{stroke-width:3.52px;}.cls-16{fill:#221660;}.cls-17{fill:#f68e15;}.cls-18{fill:#fe9da7;}.cls-19{fill:#f68;}.cls-20{fill:#fcde98;}.cls-21{fill:#3a4b73;}.cls-22{stroke-width:0.83px;}.cls-23{opacity:0.5;}.cls-24{stroke:#f68;}.cls-25{stroke-width:0.8px;}.cls-27{fill:#fff9e1;}.cls-28{fill:#d9c693;}.cls-30{stroke-width:1.82px;}.cls-31{stroke-width:1.36px;}.cls-32{stroke-width:1.46px;}.cls-33{opacity:0.15;}.cls-34{stroke-width:2.21px;}.cls-35{stroke:#221660;}.cls-37{stroke:#4b53e4;}.cls-38{stroke:#f67215;stroke-width:1.4px;}.cls-39{stroke-width:1.86px;}.cls-40{stroke:#efddc9;stroke-width:0.91px;}.cls-41,.cls-43{opacity:0.14;}.cls-42{stroke-width:3.52px;}</style></defs><path class="cls-1" d="M2188,291.25s-335.65-70.54-403.76,284.57c-41.53,216.58,149,349,267.55,357.54,437.81,31.62,426.1-442.25,426.1-442.25"/><path class="cls-2" d="M1515.79,986.22H1716a4.69,4.69,0,0,1,4.69,4.69v129.46a4.68,4.68,0,0,1-4.68,4.68H1515.78a4.68,4.68,0,0,1-4.68-4.68V990.91A4.69,4.69,0,0,1,1515.79,986.22Z"/><rect class="cls-3" x="1640.59" y="1021.96" width="66.83" height="53.93" rx="2.81"/><path class="cls-4" d="M1720.05,997.14a11.31,11.31,0,0,0-11.31-11.31h-187a11.3,11.3,0,0,0-11.3,11.31V999l209.64,1.11Z"/><polygon class="cls-5" points="1705.28 1106.85 1700.42 1139.87 1712.53 1128.88 1729.56 1130.16 1705.28 1106.85"/><path class="cls-6" d="M1599.13,1028.13H1626"/><path class="cls-6" d="M1526.64,1028.13h67.13"/><path class="cls-6" d="M1572.31,1039.33H1626"/><path class="cls-6" d="M1526.64,1039.33h39.91"/><path class="cls-6" d="M1614.2,1050.53H1626"/><path class="cls-6" d="M1526.64,1050.53h82.28"/><path class="cls-6" d="M1573,1061.16H1626"/><path class="cls-6" d="M1526.64,1061.16H1568"/><path class="cls-6" d="M1591,1072.94h35"/><path class="cls-6" d="M1526.64,1072.94h58.7"/><rect class="cls-5" x="1526.61" y="1086.92" width="67.42" height="14.37" rx="2.98"/><rect class="cls-7" x="2550.61" y="164.56" width="141.78" height="93.9" rx="3.17"/><rect class="cls-3" x="2638.2" y="188.74" width="45.2" height="36.48" rx="1.9"/><path class="cls-8" d="M2692,171.94a7.66,7.66,0,0,0-7.65-7.65H2557.82a7.65,7.65,0,0,0-7.65,7.65v1.29L2692,174Z"/><path class="cls-9" d="M2610.16,192.9h18.14"/><path class="cls-9" d="M2561.13,192.9h45.4"/><path class="cls-9" d="M2592,200.48h36.28"/><path class="cls-9" d="M2561.13,200.48h27"/><path class="cls-9" d="M2620.35,208.06h8"/><path class="cls-9" d="M2561.13,208.06h55.65"/><path class="cls-9" d="M2592.51,215.25h35.79"/><path class="cls-9" d="M2561.13,215.25h28"/><path class="cls-9" d="M2604.66,223.21h23.64"/><path class="cls-9" d="M2561.13,223.21h39.7"/><rect class="cls-5" x="2561.11" y="232.67" width="45.6" height="9.72" rx="2.01"/><path class="cls-10" d="M1954.89,540.88c9-8.61,27-39.67,7.23-43.11s-73.66,86.08-92.52,73.17,80-161,37.73-180.77c-25.7-12.05-52.66,6.58-78.22,23.32-28.68,18.79-54.52,35.58-53.9,11.23.3-12,80.88-89.4,11.72-135.88-38.35-25.77-108.57,13-175.77,50.53-54,30.16-111,68.61-166.42,35.74-82.12-48.68-61.55-366.82-300.29-376H0V1033.36S546.67,1223,822.1,1195.63s496-321.28,531.26-345.32c52.73-35.93,99.48-20.51,75,30.32s13.56,94.24,87.88,47.17c134.76-85.35,239.22-446.75,342.27-471.21,23.77-5.64-67.53,156.85-5.9,154,27.57-1.26,90.67-88.62,97.15-93.1,23.79-16.49,1.84,22.09,1.84,22.09Z"/><circle class="cls-11" cx="2448.1" cy="438.52" r="72.85"/><circle class="cls-12" cx="2454.22" cy="430.36" r="72.85"/><polyline class="cls-13" points="2416.14 444.72 2433.95 462.53 2486.57 409.9"/><circle class="cls-4" cx="1874.21" cy="861.75" r="64.08"/><circle class="cls-14" cx="1879.58" cy="854.58" r="64.08"/><circle class="cls-15" cx="1872.77" cy="844.87" r="23.65"/><path class="cls-15" d="M1889.26,864.55l19.61,19.62Z"/><path class="cls-16" d="M2122,480.1a41.64,41.64,0,0,0,2.83-13.94.75.75,0,0,0-1.5,0,40.58,40.58,0,0,1-2.77,13.54c-.35.9,1.1,1.29,1.44.4Z"/><path class="cls-5" d="M2405,838.29l69.69,181.05s86.25-103.67,97.95-113.78,91.51,58.4,91.51,58.4-72.82,93.47-110.93,148c-29.73,42.5-144,10.44-144,10.44l-61.34-146.41Z"/><path class="cls-16" d="M2664.15,964s-79.81-68.5-91.51-58.4c0,0,22.71-30.85,29.56-32.54,18.9-4.66,134.29,92.83,129.88,94.91-9.09,4.28-60.35-17-60.35-17Z"/><path class="cls-5" d="M2197.85,924.27c9.78,36.31,83.33,249.72,124.55,288s177.26,8.54,260.53-3.22l-15.66-111-153.7,7.86-51.5-119.35s67.23-98.24,42.93-148.27Z"/><polygon class="cls-16" points="2209.91 977.75 2409.71 916.71 2423.2 881.81 2209.91 977.75"/><path class="cls-8" d="M2300.68,603.31c13.19-3.34,122.09,42,122.09,42L2392.45,730l-56.58-24.53Z"/><path class="cls-17" d="M2392.45,730l-47.15-20.87-26.54-74.68a107.51,107.51,0,0,1,27.9,22.93c.67.79,26.29,25.24,27,26.07,10.69,13.49,31.26,10.77,31.26,10.77Z"/><path class="cls-18" d="M1913.24,584.34c-12.42-13.91-18.92-37.52-15.83-50.42s13.56-25.6,21.61-26.56,6.59,8.34,3.11,14.61-6.48,20.94-6.48,20.94Z"/><path class="cls-19" d="M1922.13,522c-3.47,6.28-6.48,20.94-6.48,20.94l-2.41,41.43s-8.22-20.07-8.11-40.68S1922.13,522,1922.13,522Z"/><path class="cls-18" d="M2135.31,493.37c-16.49,19.8-9.39,88.63-8.59,93,1.81,9.72,3.13,36,54.75,26.29l6.48,23s62.05-12.6,68.16-20.36c0,0-7-20.93-13.66-50.28-6.25-27.41-11.52-63-30.29-72.31C2173.26,473.35,2150.29,475.4,2135.31,493.37Z"/><path class="cls-16" d="M2109.05,515s5.63,27.47,55,14.31c0,0,4,13.59,16.8,17l-.95,15.6,11.71-2.11s-4.42,43.46,2.78,48.69,49.7-4.06,56.38-11c2.51-2.59,3.1-34.82,5-50.09,3.24-25.45,8.7-49.91-18.67-42.61,0,0-4.65-20.84-12.27-27.67s-18.66.68-18.66.68-3.34-24-27-25.85-31.69,11.53-31.69,11.53-29.14-33.81-62.23-4.52c-25.17,22.28-4.05,56.3,11,56.38Z"/><path class="cls-18" d="M1952.27,564.42c-10-.31-17.21-11.84-18.87-16.55s2.83-8.83,18.41-21.54c11.54-9.42,3-16.85-8.48-14,0,0-24.36,5.91-32.25,20.89-10.51,20,3.89,57.57,3.89,57.57s6.36,64.63,38.09,124.87c25.12,47.7,56.2,47.36,73.47,50.48s74.87-9.09,74.87-9.09l-36.54-84-39.05,7.3c-24.82-32.18-45.52-99.32-45.52-99.32Z"/><path class="cls-19" d="M1951.81,526.33c-15.58,12.71-20.06,16.83-18.41,21.54s8.89,16.24,18.87,16.55l-16.93,2.08-6.55,8.94s-6.65-19.79-1.81-30.8S1951.81,526.33,1951.81,526.33Z"/><path class="cls-19" d="M2064.86,673.11l36.54,84s-21,4.44-41.36,7.28c-4.44.61,11.43-3.46,12.11-16.78C2073.52,720.55,2064.86,673.11,2064.86,673.11Z"/><path class="cls-18" d="M2422.35,646.54c-.87.13,40,20.05,52.65,16.89,17.66-4.41,52-54.72,52-54.72s-2.72-32.08,4-33.56,9,15.46,9,15.46,19.94-48.2,26-46.24,6.25,12.62,3.39,27.17c0,0,.73,5.47,3.24.25s9.38-23,16-23.84,6.4,20.28.13,33.32c0,0,16.79-21.1,20.08-19.71s4.6,16.92-6.36,31.86c0,0,12.71-10.87,15.72-8.11s-3.59,23.12-27.13,46.34c0,0-25.7,88.19-96.43,111.62-24.62,8.16-52.33,4.27-75.78-4.66A269.74,269.74,0,0,1,2393,727.29Z"/><path class="cls-18" d="M2186.42,566.46c8.54-14.76,13.37-16.2,19-5.6s-6.93,27-17.34,24S2186.42,566.46,2186.42,566.46Z"/><path class="cls-16" d="M2567.27,1098.05s38.55-6.48,45.62-1.42,38.59,161.28,31.05,180.44-46-70.62-46-70.62l-15,2.63Z"/><path class="cls-4" d="M2063.57,663.94c-1.23,13.28,30.89,94,37.83,93.13,4.62-.55,38.91-10,38.91-10-.55.07,29.46,140.35,63.4,232.44,0,0,176.33-66.56,242.13-108.67,0,0-128.48-253.54-145.16-267.49l-162.14,42.6Z"/><path class="cls-16" d="M2389.84,943a191.83,191.83,0,0,1-27.56,43.73.85.85,0,0,0-.13,1l5.06,11.83,12.14,28.41,14.63,34.22,12.65,29.59,4.19,9.81a47.83,47.83,0,0,0,2,4.6l.09.21a.78.78,0,0,0,.69.4l14.55-.83,34.91-2,42.07-2.38,36.35-2.07c5.87-.33,11.81-.42,17.66-1h.24c1-.06,1-1.67,0-1.61l-14.54.82-34.91,2-42.08,2.39-36.35,2.06-11.92.68-3.76.21a10.75,10.75,0,0,0-2,.12,1,1,0,0,1-.25,0l.7.4-5.06-11.83-12.14-28.41-14.63-34.22-12.64-29.59-4.2-9.81-1.29-3a10.14,10.14,0,0,0-.68-1.59,1.33,1.33,0,0,1-.09-.21l-.12,1a193.48,193.48,0,0,0,27.81-44c.43-.93-1-1.75-1.39-.81Z"/><path class="cls-16" d="M2390.27,1051.41l-27.42-64.17A189.17,189.17,0,0,0,2379.58,964C2383.64,957.35,2390.27,1051.41,2390.27,1051.41Z"/><path class="cls-19" d="M2418.87,738.61A269.74,269.74,0,0,1,2393,727.29l29.34-80.75s-10.17,57-7,71.17A208.47,208.47,0,0,1,2418.87,738.61Z"/><path class="cls-8" d="M1925.21,581.1l4.22-8.34,4.68-9.71,17.7-36.72s3.45-6.34,12.25-10.83a35.34,35.34,0,0,1,4.1-1.79,26.24,26.24,0,0,1,1.3,4.35,35.77,35.77,0,0,1-.19,16.27c-1.61,6.42-8.62,23.79-14.43,37.75-1.56,3.74-3,7.23-4.29,10.21-2.41,5.67-4,9.45-4,9.45s-7.73,2.07-13.53-.17S1925.21,581.1,1925.21,581.1Z"/><path class="cls-20" d="M1969.27,534.33a35.77,35.77,0,0,0,.19-16.27,26.24,26.24,0,0,0-1.3-4.35,35.34,35.34,0,0,0-4.1,1.79c-8.8,4.49-12.25,10.83-12.25,10.83l6.35-2.6,1.18,3.52,4.85-1.76,1.62,6.37,3.06-2.3Z"/><path d="M1969.46,518.06a26.24,26.24,0,0,0-1.3-4.35,35.34,35.34,0,0,0-4.1,1.79Z"/><path class="cls-21" d="M1950.55,582.29c1.26-3,2.73-6.47,4.29-10.21a22,22,0,0,0-7.89-6.84,22.21,22.21,0,0,0-12.84-2.19l-4.68,9.71Z"/><path class="cls-4" d="M1950.55,582.29c-2.41,5.67-4,9.45-4,9.45s-7.73,2.07-13.53-.17-7.77-10.47-7.77-10.47l4.22-8.34s4.62-3,12.22.23C1949.61,576.42,1950.55,582.29,1950.55,582.29Z"/><path class="cls-18" d="M1980.29,581.09c7.71-14.13.31-27-4.73-40.71s-9.91-13.39-13.78-11.57c-3.33,1.57-.57,27.07-6.12,33.92-3,3.67-5.51,7.65-6.64,12.23-2.18,8.87-3.6,20.59,2.93,23.81,2.2,1.09,6.94-22.71,9.32-21.91A104.38,104.38,0,0,0,1980.29,581.09Z"/><path class="cls-22" d="M1464.07,1240.34h-27.38a48.37,48.37,0,0,1-48.37-48.37h0a48.38,48.38,0,0,1,48.37-48.37H1442A48.38,48.38,0,0,1,1490.4,1192v45.52a2,2,0,0,1-1.75,2.16Z"/><polygon class="cls-19" points="1760.96 1139.09 1758.32 1157.07 1774.18 1151.78 1760.96 1139.09"/><polygon class="cls-19" points="2253.85 432.24 2250.39 455.79 2271.17 448.87 2253.85 432.24"/><circle class="cls-23" cx="1268.02" cy="278.06" r="4.62"/><circle class="cls-8" cx="1729.2" cy="931.52" r="6.96"/><circle class="cls-8" cx="838.11" cy="1091.36" r="6.96"/><polyline class="cls-24" points="2589.37 -7.14 2610.03 -4.05 2605.32 11.12 2623.47 14.26 2620.8 30.89 2638.42 33.04 2634.71 47.69"/><rect class="cls-5" x="1699.39" y="697.79" width="22.54" height="22.54" transform="matrix(0.87, -0.5, 0.5, 0.87, -125.35, 950.33)"/><rect class="cls-10" x="1630.83" y="348.89" width="13.36" height="13.36" transform="translate(41.6 866.39) rotate(-30)"/><polyline class="cls-25" points="1611.55 507.02 1620.96 511.93 1616.18 518.44 1624.38 522.96 1620.34 530.5 1628.45 534.46 1624.24 540.87"/><polyline class="cls-26" points="480.46 52.84 493.55 54.7 490.64 64.32 502.14 66.23 500.52 76.77 511.69 78.05 509.4 87.33"/><path class="cls-27" d="M2163.2,1192.74l140.66-73.38s23.53,7,34.67,25.76,9.88,49.3,18.5,56.67c17.25,14.75,54.32,11.79,61.91,64.68l-132,82.07s-10.82-19-19.22-23.18c-13.49-6.69-37.32-11-52-28.94-11.81-14.42-9.33-48.31-19.42-70.43C2186,1203.41,2163.2,1192.74,2163.2,1192.74Z"/><path class="cls-28" d="M2210.88,1205.12a138.48,138.48,0,0,0,14.32-7.53c6.85-3.92,13.62-8,20.37-12.1,14.54-8.83,29-17.86,43.62-26.5a182.72,182.72,0,0,1,16.34-9c1.39-.64.18-2.69-1.2-2-4.9,2.25-9.57,5-14.22,7.75-6.82,4-13.57,8.1-20.32,12.21-14.51,8.87-28.94,17.89-43.66,26.41a153.31,153.31,0,0,1-16.45,8.76c-1.4.6-.19,2.65,1.2,2Z"/><path class="cls-28" d="M2220.37,1226.48a140.53,140.53,0,0,0,14.32-7.54c6.85-3.92,13.62-8,20.37-12.1,14.54-8.83,29-17.86,43.62-26.5a185.27,185.27,0,0,1,16.34-9c1.39-.64.18-2.69-1.2-2-4.9,2.25-9.57,5-14.22,7.75-6.82,4-13.57,8.1-20.32,12.21-14.52,8.87-28.94,17.89-43.66,26.42a153.24,153.24,0,0,1-16.45,8.75c-1.4.6-.19,2.65,1.2,2.06Z"/><path class="cls-28" d="M2229.86,1252.57a139.51,139.51,0,0,0,14.32-7.53c6.85-3.93,13.62-8,20.37-12.1,14.54-8.83,29-17.87,43.62-26.51a185.27,185.27,0,0,1,16.34-9c1.39-.63.18-2.68-1.2-2-4.9,2.26-9.57,5-14.22,7.76-6.82,4-13.57,8.09-20.32,12.21-14.52,8.86-28.94,17.88-43.66,26.41a153.31,153.31,0,0,1-16.45,8.76c-1.4.6-.19,2.64,1.2,2Z"/><path class="cls-29" d="M1976.05,1126.5c-5.8-2.11-9.56-7-8-13l1.75-6.52,14.65-53.62a7.44,7.44,0,0,1,2.45-3.83l9.11-7.58,2.33-1.94a2.14,2.14,0,0,1,3.37.89l1.08,2.87,3.71,9.83a7.55,7.55,0,0,1,.25,4.51l-14.06,53.81-1.88,7.35a12.83,12.83,0,0,1-3.16,5.85c-2.39,2.41-5.42,3.2-10.58,1.72C1976.74,1126.74,1976.39,1126.62,1976.05,1126.5Z"/><path class="cls-3" d="M2002.83,1043.77l-1.08-2.87a2.14,2.14,0,0,0-3.37-.89l-2.33,1.94a2.82,2.82,0,0,0,2.41,1.89A12.36,12.36,0,0,0,2002.83,1043.77Z"/><path class="cls-29" d="M1992.73,1111.92l-2,7.69a11.94,11.94,0,0,1-3.42,5.84c-2.33,2.15-5.31,2.8-10.23,1.39-.37-.1-.72-.22-1.06-.34-5.8-2.11-9.56-7-8-13l1.75-6.52s5.73-2.69,10.11-2C1990,1106.4,1992.73,1111.92,1992.73,1111.92Z"/><path class="cls-29" d="M1971,1116.93c2.25-1.8,12.16-2.92,16.21,4.73"/><polyline class="cls-29" points="1986.97 1054.29 1990.73 1056.38 1995.95 1055.33 2000.34 1058.05 2004.31 1056.59"/><path class="cls-29" d="M1974.52,1097.2s11.7-5.22,19.85,5.85"/><line class="cls-29" x1="1991.23" y1="1093.86" x2="2000.34" y2="1058.05"/><line class="cls-29" x1="1980.58" y1="1096.37" x2="1989.68" y2="1060.55"/><path class="cls-24" d="M2715.4,1091.52c5,6.51,5.75,14.74-.3,20.3l-6.61,6.08L2636.91,1185a10,10,0,0,1-5.48,2.56l-15.65,2-4,.52a2.84,2.84,0,0,1-3.16-3.4l.82-4,2.84-13.7a10.05,10.05,0,0,1,2.93-5.25l71.06-67.7,7.34-6.93a17,17,0,0,1,7.72-4.32c4.4-1,8.37.25,13.13,5.59C2714.8,1090.77,2715.11,1091.14,2715.4,1091.52Z"/><path class="cls-19" d="M2609.44,1182.7l-.82,4a2.84,2.84,0,0,0,3.16,3.4l4-.52s.69-1.88-1.37-3.84A16.4,16.4,0,0,0,2609.44,1182.7Z"/><polyline class="cls-24" points="2634.78 1182.17 2632.04 1177.14 2625.42 1174.59 2622.42 1168.41 2616.91 1167.23"/><line class="cls-24" x1="2675.08" y1="1117.43" x2="2622.42" y2="1168.41"/><line class="cls-24" x1="2688.85" y1="1122.2" x2="2636.19" y2="1173.18"/><path class="cls-30" d="M2781.86,541.09H2644.4l-20.9,13.4-1.38-13.4a9.65,9.65,0,0,1-9.65-9.66v-35.8a9.65,9.65,0,0,1,9.65-9.66h159.74a9.65,9.65,0,0,1,9.66,9.66v35.8A9.65,9.65,0,0,1,2781.86,541.09Z"/><line class="cls-30" x1="2636.25" y1="506.79" x2="2770.25" y2="506.79"/><line class="cls-30" x1="2636.25" y1="521.53" x2="2770.25" y2="521.53"/><path class="cls-31" d="M1761.76,262.51h34.33l11.56,7.41.76-7.41a5.36,5.36,0,0,0,5.35-5.35v-19.8a5.35,5.35,0,0,0-5.35-5.34h-46.65a5.34,5.34,0,0,0-5.34,5.34v19.8A5.35,5.35,0,0,0,1761.76,262.51Z"/><line class="cls-31" x1="1800.6" y1="243.54" x2="1768.19" y2="243.54"/><line class="cls-31" x1="1800.6" y1="251.69" x2="1768.19" y2="251.69"/><rect class="cls-32" x="1113.52" y="1160.51" width="111.51" height="73.05" rx="4.81"/><path class="cls-11" d="M1128.05,1220.22s22.53-34.58,25.68-34.58,30.38,35.1,30.38,35.1Z"/><path class="cls-11" d="M1170.78,1197.14l17.52,22h21.09V1206.6s-19.76-18.62-25.07-22C1182.67,1186.32,1170.78,1198.14,1170.78,1197.14Z"/><circle class="cls-8" cx="1139.65" cy="1178.54" r="5.89"/><g class="cls-33"><rect class="cls-34" x="513.64" y="1080.28" width="123.43" height="80.86" rx="5.33"/><path class="cls-34" d="M532.31,1146.39a1.4,1.4,0,0,1-1.17-2.18c5.32-8.08,24-36.12,27-36.12,3.48,0,33.63,38.86,33.63,38.86Z"/><path class="cls-34" d="M572.84,1122.52l19.4,24.39,26-.51a1.41,1.41,0,0,0,1.38-1.4l.16-13a1.38,1.38,0,0,0-.52-1.1c-3.32-2.67-21.62-17.39-29-22.68a2.67,2.67,0,0,0-3.47.31C582.64,1112.68,572.84,1122.52,572.84,1122.52Z"/><circle class="cls-34" cx="542.55" cy="1100.23" r="6.52"/></g><circle class="cls-35" cx="2495.03" cy="794.21" r="5.01"/><circle class="cls-35" cx="2073.42" cy="804.91" r="5.01"/><circle class="cls-35" cx="2048.48" cy="1203.95" r="5.01"/><circle class="cls-35" cx="1773.64" cy="304.08" r="5.01"/><line class="cls-26" x1="522.01" y1="997.54" x2="530.28" y2="1021.18"/><line class="cls-26" x1="515.54" y1="1014.43" x2="537.07" y2="1005.43"/><line class="cls-26" x1="1257.58" y1="119.77" x2="1265.86" y2="143.41"/><line class="cls-26" x1="1251.12" y1="136.66" x2="1272.64" y2="127.66"/><line class="cls-26" x1="1463.63" y1="1033.78" x2="1471.9" y2="1057.42"/><line class="cls-26" x1="1457.16" y1="1050.67" x2="1478.69" y2="1041.67"/><line class="cls-36" x1="2334.97" y1="281.1" x2="2343.24" y2="304.74"/><line class="cls-36" x1="2328.5" y1="298" x2="2350.03" y2="288.99"/><line class="cls-36" x1="2187.24" y1="1061.91" x2="2195.52" y2="1085.55"/><line class="cls-36" x1="2180.78" y1="1078.8" x2="2202.3" y2="1069.8"/><line class="cls-36" x1="2612.51" y1="663.22" x2="2620.78" y2="686.87"/><line class="cls-36" x1="2606.04" y1="680.12" x2="2627.57" y2="671.12"/><line class="cls-37" x1="1283.01" y1="1065.67" x2="1291.28" y2="1089.31"/><line class="cls-37" x1="1276.54" y1="1082.56" x2="1298.07" y2="1073.56"/><circle class="cls-4" cx="2014.52" cy="305.31" r="55.98"/><circle class="cls-38" cx="2018.59" cy="298.07" r="55.98"/><path class="cls-39" d="M2043,296.15c0,10.21-4.52,18.75-12.92,23.28-3.77,2-7.23,17.59-7.23,17.59l-16.38-.32s-2.7-16.54-5.57-18.54a26.8,26.8,0,1,1,42.1-22Z"/><polyline class="cls-39" points="2008.74 318.02 2004.48 293.77 2014.97 299.67 2025.12 293.77 2021.19 318.02"/><line class="cls-39" x1="2000.88" y1="318.16" x2="2030.06" y2="318.16"/><line class="cls-39" x1="2005.79" y1="327.19" x2="2025.12" y2="327.19"/><path class="cls-16" d="M2017.07,385.14a.38.38,0,0,0,0-.75.38.38,0,0,0,0,.75Z"/><path class="cls-40" d="M1457.41,1190.67c.35,7.62-2.73,14.14-8.84,17.81-2.75,1.64-4.8,13.37-4.8,13.37l-12.23.31s-2.58-12.24-4.79-13.63a20,20,0,1,1,30.66-17.86Z"/><polyline class="cls-40" points="1430.85 1208.09 1429.04 1189.78 1437.06 1193.82 1444.44 1189.08 1444.51 1208.28"/><g class="cls-41"><circle class="cls-42" cx="1158.75" cy="945.27" r="23.66"/><path class="cls-42" d="M1175.23,965l19.63,19.62Z"/></g><polyline class="cls-43" points="468.53 283.37 486.34 301.18 538.97 248.55"/><circle class="cls-3" cx="2196.92" cy="293.84" r="7.92"/></svg>